{
    "asset": {
        "version": "2.0",
        "generator": "Open Asset Import Library (assimp v5.4.0)"
    },
    "extensionsUsed": [
        "KHR_materials_volume",
        "FB_ngon_encoding"
    ],
    "accessors": [
        {
            "bufferView": 0,
            "byteOffset": 0,
            "componentType": 5126,
            "count": 74,
            "type": "VEC3",
            "max": [
                1.0,
                1.0,
                0.019999999552965164
            ],
            "min": [
                -1.0,
                -1.0,
                -2.0
            ]
        },
        {
            "bufferView": 1,
            "byteOffset": 0,
            "componentType": 5126,
            "count": 74,
            "type": "VEC3",
            "max": [
                0.9596286416053772,
                1.0,
                1.0
            ],
            "min": [
                -0.9550641179084778,
                -0.9582878351211548,
                -1.0
            ]
        },
        {
            "bufferView": 2,
            "byteOffset": 0,
            "componentType": 5125,
            "count": 90,
            "type": "SCALAR",
            "max": [
                73
            ],
            "min": [
                0
            ]
        },
        {
            "bufferView": 3,
            "byteOffset": 0,
            "componentType": 5126,
            "count": 4,
            "type": "VEC3",
            "max": [
                -1.0,
                1.0,
                -0.0
            ],
            "min": [
                -1.0,
                -1.0,
                -2.0
            ]
        },
        {
            "bufferView": 4,
            "byteOffset": 0,
            "componentType": 5126,
            "count": 4,
            "type": "VEC3",
            "max": [
                1.0,
                0.0,
                -0.0
            ],
            "min": [
                1.0,
                0.0,
                -0.0
            ]
        },
        {
            "bufferView": 5,
            "byteOffset": 0,
            "componentType": 5125,
            "count": 6,
            "type": "SCALAR",
            "max": [
                3
            ],
            "min": [
                0
            ]
        },
        {
            "bufferView": 6,
            "byteOffset": 0,
            "componentType": 5126,
            "count": 4,
            "type": "VEC3",
            "max": [
                1.0,
                1.0,
                -0.0
            ],
            "min": [
                1.0,
                -1.0,
                -2.0
            ]
        },
        {
            "bufferView": 7,
            "byteOffset": 0,
            "componentType": 5126,
            "count": 4,
            "type": "VEC3",
            "max": [
                -1.0,
                0.0,
                -0.0
            ],
            "min": [
                -1.0,
                0.0,
                -0.0
            ]
        },
        {
            "bufferView": 8,
            "byteOffset": 0,
            "componentType": 5125,
            "count": 6,
            "type": "SCALAR",
            "max": [
                3
            ],
            "min": [
                0
            ]
        }
    ],
    "buffers": [
        {
            "byteLength": 2376,
            "uri": "cornell_0.bin"
        }
    ],
    "bufferViews": [
        {
            "buffer": 0,
            "byteOffset": 0,
            "byteLength": 888,
            "target": 34962
        },
        {
            "buffer": 0,
            "byteOffset": 888,
            "byteLength": 888,
            "target": 34962
        },
        {
            "buffer": 0,
            "byteOffset": 1776,
            "byteLength": 360,
            "target": 34963
        },
        {
            "buffer": 0,
            "byteOffset": 2136,
            "byteLength": 48,
            "target": 34962
        },
        {
            "buffer": 0,
            "byteOffset": 2184,
            "byteLength": 48,
            "target": 34962
        },
        {
            "buffer": 0,
            "byteOffset": 2232,
            "byteLength": 24,
            "target": 34963
        },
        {
            "buffer": 0,
            "byteOffset": 2256,
            "byteLength": 48,
            "target": 34962
        },
        {
            "buffer": 0,
            "byteOffset": 2304,
            "byteLength": 48,
            "target": 34962
        },
        {
            "buffer": 0,
            "byteOffset": 2352,
            "byteLength": 24,
            "target": 34963
        }
    ],
    "materials": [
        {
            "name": "white",
            "pbrMetallicRoughness": {
                "baseColorFactor": [
                    0.7250000238418579,
                    0.7099999785423279,
                    0.6800000071525574,
                    1.0
                ],
                "metallicFactor": 0.0
            }
        },
        {
            "name": "red",
            "pbrMetallicRoughness": {
                "baseColorFactor": [
                    0.6299999952316284,
                    0.06499999761581421,
                    0.05000000074505806,
                    1.0
                ],
                "metallicFactor": 0.0
            }
        },
        {
            "name": "green",
            "pbrMetallicRoughness": {
                "baseColorFactor": [
                    0.14000000059604645,
                    0.44999998807907104,
                    0.09099999815225601,
                    1.0
                ],
                "metallicFactor": 0.0
            }
        }
    ],
    "meshes": [
        {
            "name": "meshes[0]",
            "primitives": [
                {
                    "mode": 4,
                    "material": 0,
                    "indices": 2,
                    "attributes": {
                        "POSITION": 0,
                        "NORMAL": 1
                    }
                }
            ]
        },
        {
            "name": "meshes[1]",
            "primitives": [
                {
                    "mode": 4,
                    "material": 1,
                    "indices": 5,
                    "attributes": {
                        "POSITION": 3,
                        "NORMAL": 4
                    }
                }
            ]
        },
        {
            "name": "meshes[2]",
            "primitives": [
                {
                    "mode": 4,
                    "material": 2,
                    "indices": 8,
                    "attributes": {
                        "POSITION": 6,
                        "NORMAL": 7
                    }
                }
            ]
        }
    ],
    "nodes": [
        {
            "name": "cornell",
            "children": [
                1
            ]
        },
        {
            "name": "cornell_node",
            "matrix": [
                1.0,
                0.0,
                0.0,
                0.0,
                0.0,
                3.422854177870249e-8,
                0.9999999403953552,
                0.0,
                0.0,
                -0.9999999403953552,
                3.422854177870249e-8,
                0.0,
                0.0,
                0.0,
                0.0,
                1.0
            ],
            "children": [
                2,
                3,
                4
            ],
            "extras": {
                "name": "cornell"
            }
        },
        {
            "name": "cornell_1",
            "mesh": 0
        },
        {
            "name": "cornell_2",
            "mesh": 1
        },
        {
            "name": "cornell_3",
            "mesh": 2
        }
    ],
    "scenes": [
        {
            "nodes": [
                0
            ]
        }
    ],
    "scene": 0
}